<?xml version="1.0" standalone="no"?>
<!DOCTYPE svg PUBLIC "-//W3C//DTD SVG 20010904//EN"
 "http://www.w3.org/TR/2001/REC-SVG-20010904/DTD/svg10.dtd">
<svg version="1.0" xmlns="http://www.w3.org/2000/svg"
 width="1408.000000pt" height="768.000000pt" viewBox="0 0 1408.000000 768.000000"
 preserveAspectRatio="xMidYMid meet">

<g transform="translate(0.000000,768.000000) scale(0.100000,-0.100000)"
fill="#000000" stroke="none">
<path d="M7802 5393 l3 -178 61 -70 c114 -133 170 -229 235 -400 20 -55 49
-128 63 -162 15 -34 31 -88 37 -120 23 -118 -9 -288 -71 -386 -47 -74 -95
-194 -83 -209 60 -78 168 -215 174 -221 17 -21 131 219 174 368 82 282 70 570
-37 865 -63 174 -160 329 -296 472 -77 80 -239 218 -257 218 -3 0 -5 -80 -3
-177z"/>
<path d="M5691 4797 c-14 -35 -51 -213 -51 -242 l0 -25 345 0 345 0 2 -677 3
-678 60 -32 c62 -34 206 -93 225 -93 8 0 10 219 10 738 l-2 737 164 6 c176 5
211 14 296 71 48 33 112 114 136 172 9 21 16 40 16 42 0 2 -347 4 -770 4
l-770 0 -9 -23z"/>
<path d="M7344 4803 c-23 -70 -82 -171 -129 -218 l-54 -54 247 -3 c235 -3 249
-4 294 -26 131 -65 128 -252 -6 -313 -35 -16 -68 -19 -238 -19 l-198 0 0 125
0 125 -150 0 -150 0 0 -490 0 -491 148 3 147 3 3 223 2 222 134 0 134 0 43
-57 c90 -119 382 -498 386 -503 7 -7 191 187 198 210 4 14 -33 68 -147 210
-84 105 -154 194 -156 198 -1 4 14 16 33 26 20 11 58 41 86 68 170 163 172
472 4 639 -104 104 -220 139 -462 139 -147 0 -164 -2 -169 -17z"/>
<path d="M5630 4367 c0 -310 137 -652 364 -911 54 -61 213 -206 226 -206 3 0
4 86 2 192 l-3 191 -65 86 c-138 184 -224 424 -224 627 l0 74 -150 0 -150 0 0
-53z"/>
<path d="M7640 3450 c-69 -50 -215 -115 -314 -140 -176 -45 -378 -47 -533 -7
l-53 14 0 -148 c0 -168 -11 -151 105 -169 114 -18 335 -14 452 9 184 36 345
100 505 203 l78 50 -56 71 c-31 40 -71 91 -88 114 -17 23 -33 42 -36 42 -3 0
-30 -18 -60 -39z"/>
<path d="M4752 2645 c-171 -53 -231 -233 -125 -372 32 -42 33 -46 16 -59 -10
-7 -22 -14 -26 -14 -17 0 -110 -97 -130 -135 -33 -63 -30 -165 7 -232 67 -121
253 -186 443 -154 63 11 159 50 205 83 13 10 25 4 75 -40 l60 -51 44 47 c25
26 53 58 64 70 l20 24 -60 52 -59 53 22 36 c29 46 74 179 65 188 -10 8 -146
49 -165 49 -9 0 -19 -19 -27 -47 -7 -27 -18 -61 -25 -77 l-12 -30 -82 78 -82
79 62 41 c138 93 168 239 71 347 -50 55 -121 79 -231 78 -48 0 -106 -6 -130
-14z m199 -154 c51 -41 21 -119 -61 -161 -39 -20 -49 -16 -88 34 -31 40 -28
81 7 117 24 23 38 29 74 29 29 0 53 -7 68 -19z m-41 -491 l115 -109 -38 -16
c-165 -70 -333 -2 -302 122 6 26 86 113 103 113 4 -1 59 -50 122 -110z"/>
<path d="M3580 2555 l0 -95 155 0 155 0 0 -385 0 -385 115 0 115 0 0 385 0
384 153 3 152 3 0 90 0 90 -422 3 -423 2 0 -95z"/>
<path d="M5530 2171 l0 -481 120 0 120 0 0 134 0 135 94 3 94 3 91 -137 90
-138 126 0 c69 0 125 2 125 4 0 2 -47 73 -104 157 l-105 154 34 18 c49 25 98
77 126 133 20 42 24 64 24 149 0 90 -3 106 -28 158 -34 68 -104 126 -193 160
-54 20 -81 22 -336 25 l-278 4 0 -481z m527 272 c52 -26 76 -63 80 -125 5 -70
-18 -114 -76 -145 -39 -20 -58 -23 -168 -23 l-123 0 0 162 0 161 125 -6 c92
-4 136 -11 162 -24z"/>
<path d="M6920 2170 l0 -480 105 0 105 0 0 278 c1 266 1 276 18 256 10 -12 74
-114 142 -227 l125 -206 56 -1 57 0 138 233 139 232 3 -282 2 -283 105 0 105
0 0 480 0 480 -97 0 -98 0 -51 -88 c-236 -405 -299 -504 -307 -491 -4 8 -86
140 -180 294 l-172 280 -97 3 -98 3 0 -481z"/>
<path d="M8230 2170 l0 -480 378 0 377 0 -3 90 -3 90 -260 0 -259 0 0 110 0
110 223 0 222 0 -2 87 -2 88 -221 -4 -220 -4 0 107 0 106 253 0 252 0 0 88 0
87 -367 3 -368 2 0 -480z"/>
<path d="M9150 2170 l0 -480 248 0 c283 0 348 8 446 54 171 79 265 231 266
428 1 238 -155 420 -396 463 -53 10 -158 14 -321 15 l-243 0 0 -480z m552 274
c104 -36 169 -130 176 -255 8 -136 -44 -231 -155 -286 -55 -26 -64 -28 -203
-28 l-145 0 -3 292 -2 292 77 4 c108 6 207 -2 255 -19z"/>
<path d="M10459 2357 c-20 -18 -60 -41 -88 -51 -28 -10 -62 -31 -76 -48 l-25
-30 0 -269 0 -269 115 0 115 0 0 350 c0 193 -1 350 -2 350 -2 -1 -19 -15 -39
-33z"/>
<path d="M10286 2353 c-6 -14 -5 -15 5 -6 7 7 10 15 7 18 -3 3 -9 -2 -12 -12z"/>
<path d="M3625 1349 c-28 -62 -51 -116 -53 -120 -2 -5 6 -9 17 -9 13 0 26 11
36 30 14 28 20 30 70 30 50 0 56 -2 70 -30 15 -29 63 -45 52 -17 -2 6 -26 60
-52 120 -64 145 -73 145 -140 -4z m105 -21 c0 -14 -8 -18 -35 -18 -40 0 -40 0
-18 58 l16 44 18 -34 c10 -18 18 -41 19 -50z"/>
<path d="M3852 1343 l3 -118 50 -3 c130 -9 207 73 160 171 -22 47 -66 67 -149
67 l-67 0 3 -117z m148 67 c26 -14 41 -64 29 -99 -12 -33 -45 -51 -94 -51
l-35 0 0 80 0 80 41 0 c22 0 49 -4 59 -10z"/>
<path d="M4090 1457 c0 -3 22 -56 49 -119 41 -97 51 -113 71 -113 20 0 30 16
71 113 27 63 49 116 49 119 0 2 -10 3 -21 1 -16 -2 -30 -24 -58 -90 -20 -48
-38 -88 -41 -88 -3 0 -21 40 -40 88 -28 70 -39 88 -57 90 -13 2 -23 1 -23 -1z"/>
<path d="M4377 1358 c-64 -145 -63 -138 -38 -138 13 0 26 11 36 30 14 28 20
30 70 30 50 0 56 -2 70 -30 15 -29 63 -45 52 -17 -2 6 -26 60 -52 120 -40 90
-51 107 -69 107 -19 0 -30 -17 -69 -102z m113 -40 c0 -5 -18 -8 -39 -8 -22 0
-42 3 -44 8 -2 4 5 27 16 52 l20 44 23 -44 c13 -25 23 -48 24 -52z"/>
<path d="M4600 1339 c0 -119 0 -120 23 -117 20 3 22 8 22 76 0 39 3 72 6 72 3
0 32 -34 65 -74 86 -108 94 -104 94 44 0 113 -1 120 -20 120 -18 0 -20 -7 -20
-75 0 -41 -3 -75 -7 -75 -5 1 -34 34 -66 75 -37 47 -66 75 -78 75 -18 0 -19
-8 -19 -121z"/>
<path d="M4894 1426 c-28 -28 -34 -42 -34 -75 0 -87 55 -138 138 -128 50 5 83
30 65 48 -8 8 -16 8 -31 0 -31 -16 -77 -13 -101 7 -59 47 -22 147 53 145 20
-1 42 -6 49 -11 8 -7 18 -7 27 -1 13 8 11 13 -9 29 -16 14 -38 20 -73 20 -44
0 -54 -4 -84 -34z"/>
<path d="M5120 1340 c0 -113 1 -120 20 -120 19 0 20 7 20 120 0 113 -1 120
-20 120 -19 0 -20 -7 -20 -120z"/>
<path d="M5220 1339 c0 -118 0 -120 22 -117 21 3 22 8 21 81 -1 43 2 75 6 73
4 -3 34 -39 67 -80 85 -110 94 -105 94 44 0 113 -1 120 -20 120 -18 0 -20 -7
-20 -76 0 -42 -4 -74 -9 -72 -5 2 -34 36 -66 76 -35 45 -63 72 -76 72 -18 0
-19 -8 -19 -121z"/>
<path d="M5514 1426 c-28 -28 -34 -42 -34 -75 0 -102 79 -155 179 -120 29 10
31 14 31 60 0 42 -3 49 -19 49 -16 0 -20 -8 -23 -37 -3 -36 -5 -38 -39 -41
-46 -4 -78 22 -85 68 -11 68 56 116 118 85 24 -12 34 -12 46 -3 26 22 -21 48
-85 48 -49 0 -59 -4 -89 -34z"/>
<path d="M5842 1343 c3 -114 4 -118 26 -121 21 -3 22 0 22 53 l0 56 58 -3 57
-3 3 -52 c3 -45 6 -53 23 -53 18 0 19 8 19 120 0 113 -1 120 -20 120 -17 0
-20 -7 -20 -50 l0 -50 -60 0 -60 0 0 50 c0 47 -2 50 -25 50 l-26 0 3 -117z"/>
<path d="M6110 1340 l0 -121 87 3 c74 3 88 6 91 21 3 15 -5 17 -68 17 l-71 0
3 33 c3 32 4 32 61 35 42 2 57 7 57 17 0 12 -14 15 -60 15 l-60 0 0 30 0 30
65 0 c58 0 65 2 65 20 0 18 -7 20 -85 20 l-85 0 0 -120z"/>
<path d="M6401 1442 c-20 -37 -91 -203 -91 -212 0 -6 9 -10 21 -10 13 0 23 10
30 30 10 29 14 30 69 30 55 0 58 -2 70 -30 9 -21 19 -30 35 -30 23 0 22 3 -29
118 -41 91 -57 118 -73 120 -13 2 -26 -4 -32 -16z m49 -72 c28 -54 26 -60 -21
-60 -29 0 -40 4 -36 13 2 6 10 29 18 50 7 20 14 37 16 37 1 0 12 -18 23 -40z"/>
<path d="M6590 1340 l0 -120 80 0 c73 0 80 2 80 20 0 18 -7 20 -60 20 l-60 0
0 100 c0 93 -1 100 -20 100 -19 0 -20 -7 -20 -120z"/>
<path d="M6742 1443 c2 -13 14 -19 41 -21 l37 -3 0 -100 c0 -92 1 -99 20 -99
19 0 20 7 20 100 l0 100 40 0 c33 0 40 3 40 20 0 19 -7 20 -101 20 -90 0 -100
-2 -97 -17z"/>
<path d="M6972 1343 c3 -114 4 -118 26 -121 21 -3 22 0 22 53 l0 56 58 -3 57
-3 3 -52 c3 -45 6 -53 23 -53 18 0 19 8 19 120 0 112 -1 120 -19 120 -17 0
-20 -8 -23 -47 l-3 -48 -57 -3 -58 -3 0 51 c0 47 -2 50 -25 50 l-26 0 3 -117z"/>
<path d="M7264 1426 c-28 -28 -34 -42 -34 -75 0 -104 92 -162 181 -115 32 16
34 41 3 36 -82 -15 -93 -14 -118 12 -65 64 11 174 92 132 19 -10 33 -11 43 -5
12 8 10 13 -10 29 -16 14 -38 20 -73 20 -44 0 -54 -4 -84 -34z"/>
<path d="M7504 1349 c-27 -62 -50 -116 -52 -121 -2 -4 8 -8 21 -8 19 0 28 8
36 30 10 29 12 30 69 30 57 0 60 -1 72 -30 8 -18 20 -30 31 -30 11 0 19 3 19
8 0 4 -22 57 -49 117 -41 92 -53 110 -73 113 -22 3 -29 -8 -74 -109z m96 15
c11 -25 20 -48 20 -50 0 -2 -18 -4 -40 -4 -22 0 -40 3 -40 7 0 11 32 93 37 93
2 0 13 -21 23 -46z"/>
<path d="M7740 1340 c0 -113 1 -120 20 -120 16 0 20 7 20 35 0 33 2 35 33 35
25 0 37 -7 56 -35 16 -24 31 -35 48 -35 l25 0 -26 34 c-31 42 -31 41 -6 66 29
29 27 84 -5 115 -21 22 -33 25 -95 25 l-70 0 0 -120z m138 68 c33 -33 -1 -78
-59 -78 l-39 0 0 45 0 45 43 0 c24 0 48 -5 55 -12z"/>
<path d="M7980 1340 l0 -121 87 3 c74 3 88 6 91 21 3 15 -5 17 -68 17 l-71 0
3 33 c3 32 4 32 61 35 41 2 57 7 57 17 0 10 -16 15 -57 17 -55 3 -58 4 -61 31
l-3 27 65 0 c59 0 66 2 66 20 0 18 -7 20 -85 20 l-85 0 0 -120z"/>
<path d="M8326 1444 c-18 -17 -21 -51 -7 -73 7 -10 2 -24 -15 -44 -31 -37 -30
-61 2 -86 30 -23 80 -27 118 -10 19 9 29 9 39 0 11 -9 17 -8 26 3 9 10 8 16
-3 25 -11 9 -13 19 -5 37 5 14 9 30 9 35 0 16 -29 10 -39 -8 -9 -17 -12 -16
-33 5 l-22 22 22 16 c24 17 30 62 10 82 -17 17 -84 15 -102 -4z m74 -19 c10
-13 10 -19 -5 -35 -24 -27 -33 -25 -41 6 -4 17 -2 29 7 35 19 12 25 11 39 -6z
m-6 -124 c27 -29 28 -29 8 -40 -12 -6 -27 -11 -36 -11 -16 0 -46 26 -46 40 0
11 29 40 39 40 4 0 20 -13 35 -29z"/>
<path d="M8614 1442 c59 -186 73 -217 96 -217 21 0 27 10 49 78 14 42 28 77
31 77 3 0 17 -35 31 -77 22 -68 28 -78 49 -78 23 0 37 31 96 218 5 15 1 18
-16 15 -17 -2 -27 -18 -46 -73 -13 -38 -27 -77 -30 -85 -4 -9 -18 19 -34 70
-22 66 -33 86 -48 88 -17 3 -24 -9 -48 -82 -16 -47 -31 -86 -34 -86 -3 0 -16
38 -30 85 -22 75 -28 85 -48 85 -18 0 -22 -4 -18 -18z"/>
<path d="M9010 1340 l0 -120 85 0 c78 0 85 2 85 20 0 18 -7 20 -66 20 l-65 0
3 33 c3 32 3 32 58 32 44 0 55 3 58 18 3 15 -5 17 -57 17 l-61 0 0 30 0 30 65
0 c58 0 65 2 65 20 0 18 -7 20 -85 20 l-85 0 0 -120z"/>
<path d="M9230 1340 l0 -120 85 0 c78 0 85 2 85 20 0 16 -8 19 -62 22 l-63 3
-3 98 c-2 89 -4 97 -22 97 -19 0 -20 -7 -20 -120z"/>
<path d="M9430 1340 l0 -121 82 3 c70 3 83 6 86 21 3 15 -5 17 -61 17 l-64 0
3 100 3 100 -25 0 -24 0 0 -120z"/>
<path d="M9632 1343 c3 -110 4 -118 23 -118 18 0 21 8 25 73 l5 72 60 -72 c90
-108 95 -106 95 41 0 114 -1 121 -20 121 -18 0 -20 -7 -20 -75 0 -41 -3 -75
-7 -74 -5 0 -34 34 -66 75 -37 47 -66 74 -78 74 -19 0 -19 -7 -17 -117z"/>
<path d="M9900 1340 l0 -121 87 3 c74 3 88 6 91 21 3 15 -5 17 -68 17 l-71 0
3 33 c3 32 4 32 61 35 41 2 57 7 57 17 0 10 -16 15 -57 17 -55 3 -58 4 -61 31
l-3 27 65 0 c59 0 66 2 66 20 0 18 -7 20 -85 20 l-85 0 0 -120z"/>
<path d="M10135 1435 c-46 -45 -26 -82 61 -114 36 -12 49 -22 49 -36 0 -16 -8
-21 -43 -23 -25 -2 -50 2 -59 9 -12 10 -16 10 -24 -2 -13 -21 -11 -25 16 -37
49 -22 125 -11 147 22 14 20 8 63 -9 79 -10 8 -37 20 -59 26 -54 14 -70 33
-49 55 19 18 43 20 80 6 20 -8 27 -7 32 6 8 23 -14 34 -70 34 -38 0 -53 -5
-72 -25z"/>
<path d="M10352 1443 c-49 -43 -25 -105 45 -118 64 -12 84 -46 40 -66 -18 -8
-33 -7 -62 5 -31 13 -40 14 -47 4 -13 -21 -10 -25 23 -37 66 -23 132 -8 151
34 19 42 -2 70 -69 92 -65 20 -81 45 -39 64 18 9 33 9 57 0 31 -11 48 -4 49
20 0 24 -121 25 -148 2z"/>
</g>
</svg>
