<?xml version="1.0" standalone="no"?>
<!DOCTYPE svg PUBLIC "-//W3C//DTD SVG 20010904//EN"
 "http://www.w3.org/TR/2001/REC-SVG-20010904/DTD/svg10.dtd">
<svg version="1.0" xmlns="http://www.w3.org/2000/svg"
 width="1408.000000pt" height="768.000000pt" viewBox="0 0 1408.000000 768.000000"
 preserveAspectRatio="xMidYMid meet">

<g transform="translate(0.000000,768.000000) scale(0.100000,-0.100000)"
fill="#000000" stroke="none">
<path d="M2933 5283 c9 -2 23 -2 30 0 6 3 -1 5 -18 5 -16 0 -22 -2 -12 -5z"/>
<path d="M3003 5283 c9 -2 23 -2 30 0 6 3 -1 5 -18 5 -16 0 -22 -2 -12 -5z"/>
<path d="M3058 5283 c7 -3 16 -2 19 1 4 3 -2 6 -13 5 -11 0 -14 -3 -6 -6z"/>
<path d="M2848 5273 c6 -2 18 -2 25 0 6 3 1 5 -13 5 -14 0 -19 -2 -12 -5z"/>
<path d="M3765 5010 c10 -11 20 -20 23 -20 3 0 -3 9 -13 20 -10 11 -20 20 -23
20 -3 0 3 -9 13 -20z"/>
<path d="M3825 4960 c10 -11 20 -20 23 -20 3 0 -3 9 -13 20 -10 11 -20 20 -23
20 -3 0 3 -9 13 -20z"/>
<path d="M2099 4873 l-24 -28 28 24 c25 23 32 31 24 31 -2 0 -14 -12 -28 -27z"/>
<path d="M1896 4553 c-6 -14 -5 -15 5 -6 7 7 10 15 7 18 -3 3 -9 -2 -12 -12z"/>
<path d="M6075 4487 c-67 -22 -101 -44 -143 -92 -85 -96 -82 -221 9 -336 l28
-36 -37 -21 c-111 -62 -182 -169 -182 -272 0 -116 53 -202 159 -259 159 -84
393 -78 543 15 34 20 63 32 70 28 7 -4 38 -29 70 -56 l56 -48 59 66 c32 36 62
72 66 80 5 10 -10 31 -53 71 l-61 58 32 58 c23 44 68 162 69 184 0 8 -194 63
-199 57 -5 -5 -16 -34 -26 -64 -35 -111 -28 -110 -129 -16 l-90 82 50 31 c206
126 216 349 20 450 -45 24 -65 27 -161 30 -71 2 -124 -2 -150 -10z m212 -182
c28 -32 29 -60 3 -102 -17 -29 -88 -83 -108 -83 -11 0 -57 50 -71 77 -14 27
-14 68 -1 93 30 55 135 64 177 15z m-52 -527 c68 -62 121 -116 118 -121 -11
-17 -90 -46 -144 -53 -71 -8 -132 9 -177 51 -33 30 -37 39 -37 82 0 35 6 56
23 77 19 25 79 76 89 76 2 0 59 -50 128 -112z"/>
<path d="M4810 4385 l0 -105 169 0 170 0 -2 -422 -2 -423 128 -3 127 -3 0 426
0 425 165 0 165 0 0 105 0 105 -460 0 -460 0 0 -105z"/>
<path d="M6920 3961 l0 -531 125 0 125 0 0 150 0 150 109 0 108 0 99 -150 99
-150 138 0 c128 0 137 1 128 18 -5 9 -57 87 -115 172 l-104 155 42 26 c55 35
103 91 135 159 22 47 26 69 26 150 0 81 -4 103 -26 150 -49 104 -117 161 -242
203 -56 18 -92 21 -354 25 l-293 4 0 -531z m580 293 c55 -32 80 -77 80 -144 0
-62 -22 -106 -70 -142 -33 -24 -121 -38 -242 -38 l-98 0 0 176 0 176 148 -4
c126 -3 152 -6 182 -24z"/>
<path d="M8390 3960 l0 -530 120 0 120 0 2 301 3 301 149 -246 150 -246 56 0
c42 0 61 5 72 18 17 19 264 439 274 465 19 50 24 -9 24 -288 l0 -305 120 0
120 0 -2 528 -3 527 -107 3 -107 3 -33 -53 c-19 -29 -105 -173 -192 -321 -88
-147 -160 -266 -161 -265 -3 4 -263 428 -323 528 -70 116 -60 110 -179 110
l-103 0 0 -530z"/>
<path d="M9810 3960 l0 -530 410 0 410 0 0 100 0 100 -285 0 -285 0 0 120 0
120 240 0 240 0 0 100 0 100 -240 0 -240 0 0 111 0 111 78 -3 c42 -2 166 -3
275 -1 l197 2 0 100 0 100 -400 0 -400 0 0 -530z"/>
<path d="M10790 3961 l0 -531 288 0 c326 0 382 8 501 66 261 129 354 453 211
734 -33 64 -128 153 -202 189 -122 59 -154 64 -490 69 l-308 4 0 -531z m631
292 c60 -27 118 -85 149 -148 34 -69 35 -217 3 -286 -27 -60 -85 -118 -148
-149 -45 -22 -66 -24 -212 -28 l-163 -4 0 322 0 322 163 -4 c138 -3 169 -7
208 -25z"/>
<path d="M12010 3960 l0 -530 125 0 125 0 0 530 0 530 -125 0 -125 0 0 -530z"/>
<path d="M2882 4365 c-17 -37 -14 -45 4 -12 9 16 14 31 11 33 -2 2 -9 -7 -15
-21z"/>
<path d="M3110 4385 c0 -5 5 -17 10 -25 5 -8 10 -10 10 -5 0 6 -5 17 -10 25
-5 8 -10 11 -10 5z"/>
<path d="M3295 4130 c10 -11 20 -20 23 -20 3 0 -3 9 -13 20 -10 11 -20 20 -23
20 -3 0 3 -9 13 -20z"/>
<path d="M2700 4130 c-9 -6 -10 -10 -3 -10 6 0 15 5 18 10 8 12 4 12 -15 0z"/>
<path d="M2398 4003 c6 -2 18 -2 25 0 6 3 1 5 -13 5 -14 0 -19 -2 -12 -5z"/>
<path d="M1893 3863 c9 -2 23 -2 30 0 6 3 -1 5 -18 5 -16 0 -22 -2 -12 -5z"/>
<path d="M1953 3863 c9 -2 25 -2 35 0 9 3 1 5 -18 5 -19 0 -27 -2 -17 -5z"/>
<path d="M2053 3863 c15 -2 37 -2 50 0 12 2 0 4 -28 4 -27 0 -38 -2 -22 -4z"/>
<path d="M3135 3529 c-4 -6 -5 -12 -2 -15 2 -3 7 2 10 11 7 17 1 20 -8 4z"/>
<path d="M6292 3083 c-12 -2 -37 -19 -56 -36 -114 -108 17 -289 160 -221 38
18 39 21 19 48 -13 17 -15 17 -37 2 -53 -37 -116 -8 -125 59 -4 31 0 46 16 66
27 34 49 39 97 23 37 -13 64 -6 64 16 0 25 -89 53 -138 43z"/>
<path d="M6960 3079 c-43 -9 -87 -57 -96 -104 -8 -47 18 -118 53 -141 38 -24
102 -29 146 -11 36 16 37 17 37 71 0 53 -1 56 -24 56 -22 0 -25 -5 -28 -42 -3
-42 -4 -43 -40 -46 -79 -7 -121 94 -63 148 28 26 84 31 110 10 12 -10 18 -10
30 0 21 17 19 27 -7 44 -31 19 -76 25 -118 15z"/>
<path d="M8833 3079 c-65 -19 -106 -103 -84 -172 19 -56 62 -90 124 -95 46 -4
57 -1 83 21 27 24 28 27 12 43 -15 15 -18 15 -39 0 -50 -35 -114 -10 -125 49
-15 79 43 129 113 100 35 -15 63 -8 63 16 0 29 -95 54 -147 38z"/>
<path d="M9965 3083 c-47 -11 -70 -64 -46 -102 7 -10 2 -24 -15 -44 -48 -57
-20 -115 59 -124 33 -4 54 -1 70 10 21 14 26 14 39 1 13 -13 16 -12 31 4 15
17 16 21 3 31 -11 10 -12 19 -4 43 8 24 8 32 -3 39 -21 13 -27 11 -34 -12 l-7
-21 -24 23 -24 22 25 23 c14 13 25 34 25 47 0 40 -49 71 -95 60z m40 -63 c0
-29 -32 -41 -41 -16 -9 24 4 48 23 44 12 -2 18 -12 18 -28z m15 -151 c0 -13
-50 -20 -70 -9 -24 13 -25 28 -3 52 16 18 17 18 45 -9 15 -15 28 -30 28 -34z"/>
<path d="M11925 3083 c-48 -12 -78 -61 -63 -104 9 -25 25 -35 116 -70 15 -6
22 -16 20 -27 -4 -22 -59 -28 -100 -11 -25 10 -31 10 -39 -2 -5 -8 -9 -17 -9
-21 0 -16 61 -38 105 -38 38 0 52 5 76 29 55 55 35 102 -56 129 -66 20 -83 44
-42 63 17 7 35 8 61 1 31 -9 37 -8 46 8 8 15 6 21 -8 29 -24 13 -82 20 -107
14z"/>
<path d="M12155 3083 c-39 -10 -65 -44 -65 -85 0 -43 21 -62 82 -73 42 -8 63
-27 54 -51 -5 -12 -16 -15 -49 -11 -23 2 -52 8 -63 12 -16 5 -22 2 -27 -14 -7
-30 17 -44 83 -49 55 -4 61 -2 90 26 53 54 30 108 -56 131 -23 6 -48 18 -55
27 -11 14 -10 18 6 31 19 13 48 13 87 -2 11 -4 20 0 27 14 9 16 8 22 -7 30
-24 13 -82 20 -107 14z"/>
<path d="M4868 2962 c-67 -166 -64 -152 -33 -152 21 0 29 7 38 30 11 29 14 30
73 30 60 0 62 -1 73 -30 7 -23 16 -30 35 -30 15 0 26 3 26 8 0 4 -23 64 -52
134 -51 124 -54 128 -83 128 -29 0 -32 -4 -77 -118z m97 12 c21 -51 20 -54
-20 -54 -19 0 -35 4 -35 9 0 13 29 81 35 81 3 0 12 -16 20 -36z"/>
<path d="M5112 2949 l3 -134 75 1 c125 1 177 46 167 147 -3 38 -11 56 -36 80
-30 30 -36 32 -121 36 l-91 3 3 -133z m168 63 c16 -13 23 -30 24 -60 1 -55
-26 -82 -88 -89 l-46 -6 0 87 0 86 44 0 c27 0 52 -7 66 -18z"/>
<path d="M5370 3073 c0 -12 92 -237 103 -250 8 -12 57 -19 57 -9 0 2 25 63 54
135 l55 131 -28 0 c-27 0 -31 -7 -69 -97 l-40 -97 -14 35 c-8 18 -26 62 -39
97 -21 55 -27 62 -51 62 -16 0 -28 -3 -28 -7z"/>
<path d="M5721 3063 c-12 -24 -101 -241 -101 -248 0 -3 12 -5 26 -5 19 0 28 7
37 30 11 29 14 30 73 30 60 0 62 -1 73 -30 8 -23 16 -30 37 -30 32 0 33 -3
-32 152 -45 109 -51 118 -76 118 -16 0 -31 -7 -37 -17z m55 -88 c20 -49 18
-55 -21 -55 -19 0 -35 2 -35 5 0 10 32 85 37 85 2 0 11 -16 19 -35z"/>
<path d="M5922 2948 l3 -133 25 0 c24 0 25 3 30 77 l5 77 62 -80 c41 -52 70
-79 83 -79 19 0 20 6 20 135 l0 135 -25 0 c-23 0 -24 -2 -27 -81 l-3 -82 -64
82 c-48 61 -70 81 -88 81 l-24 0 3 -132z"/>
<path d="M6472 2948 l3 -133 28 -3 27 -3 0 135 0 136 -30 0 -31 0 3 -132z"/>
<path d="M6590 2944 l0 -135 27 3 c26 3 26 3 24 81 -1 42 1 77 6 76 4 0 35
-35 68 -77 38 -48 69 -78 83 -80 22 -3 22 -2 22 132 l0 136 -30 0 -29 0 -3
-77 -3 -77 -59 77 c-44 58 -65 77 -82 77 l-24 0 0 -136z"/>
<path d="M7252 2948 l3 -133 25 0 c23 0 25 4 28 58 l3 58 57 -3 57 -3 3 -57
c3 -54 5 -58 27 -58 l25 0 0 135 0 135 -25 0 c-23 0 -25 -3 -25 -49 0 -28 -5
-53 -10 -56 -6 -4 -33 -4 -60 0 l-50 7 0 49 c0 48 -1 49 -30 49 l-31 0 3 -132z"/>
<path d="M7542 2948 l3 -133 95 0 c90 0 95 1 98 22 3 21 -1 22 -70 25 l-73 3
0 30 c0 30 1 30 58 33 48 3 57 6 57 22 0 16 -9 19 -57 22 -55 3 -58 4 -61 31
l-3 27 70 0 c69 0 71 1 71 25 0 25 0 25 -95 25 l-96 0 3 -132z"/>
<path d="M7845 3048 c-7 -18 -32 -75 -54 -127 -23 -52 -41 -98 -41 -103 0 -4
11 -8 25 -8 17 0 29 9 40 30 15 28 19 30 74 30 57 0 59 -1 70 -30 8 -25 16
-30 41 -30 l30 0 -14 33 c-7 17 -33 78 -57 135 -40 95 -45 102 -72 102 -22 0
-31 -7 -42 -32z m48 -126 c-19 -2 -37 -2 -39 1 -2 2 4 26 13 53 l17 49 22 -50
21 -50 -34 -3z"/>
<path d="M8060 2945 l0 -135 90 0 c89 0 90 0 90 25 0 24 -2 25 -65 25 l-65 0
0 110 0 110 -25 0 -25 0 0 -135z"/>
<path d="M8222 3058 c2 -19 10 -24 40 -26 l37 -3 3 -107 3 -107 28 -3 27 -3 0
110 0 111 40 0 c36 0 40 3 40 25 l0 25 -111 0 c-109 0 -110 0 -107 -22z"/>
<path d="M8472 2948 l3 -133 25 0 c23 0 25 4 28 58 l3 58 57 -3 57 -3 3 -57
c3 -54 5 -58 27 -58 l25 0 0 135 0 135 -24 0 c-23 0 -25 -4 -28 -52 l-3 -53
-57 -3 -58 -3 0 56 c0 55 0 55 -30 55 l-31 0 3 -132z"/>
<path d="M9085 3048 c-7 -18 -32 -75 -54 -127 -23 -52 -41 -98 -41 -103 0 -4
12 -8 26 -8 19 0 28 7 37 30 11 29 14 30 73 30 60 0 62 -1 73 -30 7 -23 16
-30 35 -30 15 0 26 3 26 8 0 4 -23 64 -52 135 -49 121 -53 127 -80 127 -23 0
-32 -6 -43 -32z m61 -73 c20 -49 18 -55 -21 -55 -19 0 -35 2 -35 5 0 10 32 85
37 85 2 0 11 -16 19 -35z"/>
<path d="M9292 2948 l3 -133 28 -3 c26 -3 27 -1 27 37 0 38 2 41 28 41 22 0
34 -9 53 -37 16 -26 33 -39 52 -41 33 -4 34 4 3 48 l-24 35 24 28 c34 41 32
90 -5 128 -28 27 -34 29 -111 29 l-81 0 3 -132z m142 76 c19 -7 21 -55 4 -72
-7 -7 -29 -12 -50 -12 l-38 0 0 45 c0 45 0 45 34 45 19 0 41 -3 50 -6z"/>
<path d="M9552 2948 l3 -133 98 -3 97 -3 0 26 c0 24 -2 25 -70 25 l-70 0 0 35
0 35 60 0 c53 0 60 2 60 20 0 18 -7 20 -60 20 l-60 0 0 30 0 30 65 0 c63 0 65
1 65 25 0 25 0 25 -95 25 l-96 0 3 -132z"/>
<path d="M10240 3073 c1 -5 18 -64 39 -133 37 -123 38 -125 67 -125 28 0 30 4
58 90 l30 90 28 -92 c28 -89 30 -93 58 -93 28 0 30 3 65 118 20 64 39 125 42
135 4 15 0 18 -23 15 -26 -3 -30 -9 -54 -90 -14 -49 -27 -88 -30 -88 -3 0 -17
39 -31 88 -25 83 -28 87 -54 87 -27 0 -30 -4 -53 -82 -14 -46 -28 -83 -32 -83
-4 0 -17 38 -31 85 -22 81 -25 85 -51 85 -15 0 -28 -3 -28 -7z"/>
<path d="M10662 2948 l3 -133 98 -3 97 -3 0 26 c0 24 -2 25 -70 25 l-70 0 0
35 0 35 60 0 c53 0 60 2 60 20 0 18 -7 20 -60 20 l-60 0 0 30 0 30 65 0 c63 0
65 1 65 25 0 25 0 25 -96 25 l-96 0 4 -132z"/>
<path d="M10910 2955 c0 -69 0 -128 0 -132 0 -5 40 -9 90 -11 l90 -3 0 26 c0
24 -2 25 -65 25 l-65 0 0 110 0 110 -25 0 -25 0 0 -125z"/>
<path d="M11120 2945 l0 -136 93 3 c87 3 92 4 95 26 3 21 0 22 -62 22 l-66 0
0 110 0 110 -30 0 -30 0 0 -135z"/>
<path d="M11340 2945 l0 -135 25 0 c25 0 25 1 25 80 0 44 3 80 8 80 4 -1 34
-37 66 -80 45 -60 66 -80 83 -80 23 0 23 1 23 135 l0 135 -31 0 -31 0 4 -81 3
-81 -33 39 c-18 21 -47 57 -64 81 -21 28 -39 42 -55 42 -23 0 -23 0 -23 -135z"/>
<path d="M11630 2945 l0 -135 95 0 c95 0 95 0 95 25 0 24 -2 25 -71 25 l-70 0
3 33 c3 32 4 32 61 35 49 3 57 6 57 22 0 18 -7 20 -60 20 -60 0 -60 0 -60 30
0 29 0 29 68 32 61 3 67 5 70 26 3 21 1 22 -92 22 l-96 0 0 -135z"/>
<path d="M4069 2793 c-13 -16 -12 -17 4 -4 9 7 17 15 17 17 0 8 -8 3 -21 -13z"/>
<path d="M4024 2738 l-19 -23 23 19 c12 11 22 21 22 23 0 8 -8 2 -26 -19z"/>
<path d="M3073 2525 c0 -27 2 -38 4 -22 2 15 2 37 0 50 -2 12 -4 0 -4 -28z"/>
<path d="M3725 2520 c-3 -6 1 -7 9 -4 18 7 21 14 7 14 -6 0 -13 -4 -16 -10z"/>
<path d="M3072 2410 c0 -14 2 -19 5 -12 2 6 2 18 0 25 -3 6 -5 1 -5 -13z"/>
<path d="M2608 2403 c7 -3 16 -2 19 1 4 3 -2 6 -13 5 -11 0 -14 -3 -6 -6z"/>
<path d="M2648 2393 c7 -3 16 -2 19 1 4 3 -2 6 -13 5 -11 0 -14 -3 -6 -6z"/>
<path d="M3298 2383 c7 -3 16 -2 19 1 4 3 -2 6 -13 5 -11 0 -14 -3 -6 -6z"/>
<path d="M3108 2363 c7 -3 16 -2 19 1 4 3 -2 6 -13 5 -11 0 -14 -3 -6 -6z"/>
</g>
</svg>
